<svg xmlns="http://www.w3.org/2000/svg"><symbol id="icon-navi" viewBox="0 0 40 40"><path d="M15 35C6.72 35 0 28.28 0 20 0 11.72 6.72 5 15 5c8.28 0 15 6.72 15 15 0 8.28-6.72 15-15 15z" opacity=".2"/></symbol><symbol id="navi" viewBox="0 0 120 40"><path d="M105 35c-8.28 0-15-6.72-15-15 0-8.28 6.72-15 15-15 8.28 0 15 6.72 15 15 0 8.28-6.72 15-15 15zm-45 5c-11.05 0-20-8.95-20-20S48.95 0 60 0s20 8.95 20 20-8.95 20-20 20zm-45-5C6.72 35 0 28.28 0 20 0 11.72 6.72 5 15 5c8.28 0 15 6.72 15 15 0 8.28-6.72 15-15 15z" opacity=".2"/></symbol></svg>